<?xml version="1.0" encoding="UTF-8" standalone="no"?>
<!-- Created with Inkscape (http://www.inkscape.org/) -->

<svg
   xmlns:dc="http://purl.org/dc/elements/1.1/"
   xmlns:cc="http://creativecommons.org/ns#"
   xmlns:rdf="http://www.w3.org/1999/02/22-rdf-syntax-ns#"
   xmlns:svg="http://www.w3.org/2000/svg"
   xmlns="http://www.w3.org/2000/svg"
   xmlns:sodipodi="http://sodipodi.sourceforge.net/DTD/sodipodi-0.dtd"
   xmlns:inkscape="http://www.inkscape.org/namespaces/inkscape"
   width="160"
   height="160"
   viewBox="0 0 42.333332 42.333335"
   version="1.1"
   id="svg8"
   inkscape:version="0.92.1 r15371"
   sodipodi:docname="ShivL.svg">
  <defs
     id="defs2" />
  <sodipodi:namedview
     id="base"
     pagecolor="#ffffff"
     bordercolor="#666666"
     borderopacity="1.0"
     inkscape:pageopacity="0.0"
     inkscape:pageshadow="2"
     inkscape:zoom="0.35"
     inkscape:cx="400"
     inkscape:cy="560"
     inkscape:document-units="mm"
     inkscape:current-layer="layer1"
     showgrid="false"
     units="px"
     inkscape:window-width="1600"
     inkscape:window-height="837"
     inkscape:window-x="-8"
     inkscape:window-y="-8"
     inkscape:window-maximized="1" />
  <metadata
     id="metadata5">
    <rdf:RDF>
      <cc:Work
         rdf:about="">
        <dc:format>image/svg+xml</dc:format>
        <dc:type
           rdf:resource="http://purl.org/dc/dcmitype/StillImage" />
        <dc:title></dc:title>
      </cc:Work>
    </rdf:RDF>
  </metadata>
  <g
     inkscape:label="Layer 1"
     inkscape:groupmode="layer"
     id="layer1"
     transform="translate(0,-254.66665)">
    <g
       id="g24"
       transform="matrix(1.1024306,0,0,1.1024306,0,254.66665)">
      <path
         inkscape:connector-curvature="0"
         id="path10"
         style="fill:none"
         d="M 0,38.3998 V 0 h 38.3998 v 38.3998 z" />
      <path
         inkscape:connector-curvature="0"
         id="path12"
         style="fill:#565757;fill-rule:evenodd"
         d="M 29.3464,32.1697 16.3781,19.2014 29.3464,6.2303 29.4077,6.1746 c 0.714,-0.6499 1.163,-1.5869 1.163,-2.6272 C 30.5707,1.5869 28.9838,0 27.0232,0 25.983,0 25.0459,0.449 24.3961,1.1629 L 24.3403,1.2243 8.8649,16.697 c -1.3805,1.3805 -1.3805,3.6283 0,5.0088 L 24.3961,37.237 c 0.6498,0.714 1.5869,1.163 2.6271,1.163 1.9606,0 3.5475,-1.5869 3.5475,-3.5474 0,-1.071 -0.4741,-2.0331 -1.2243,-2.6829 z" />
    </g>
  </g>
</svg>
